An Iraq War veteran who just narrowly escaped death in combat struggles with his new post at the Casualty Notification Office while anticipating his upcoming discharge in this military drama starring Ben Foster, Woody Harrelson, Jena Malone, and Samantha Morton. Will Montgomery (Foster) has spent his fair share of time in army hospitals, and with just three months to go before returning to civilian life, he discovers that his girlfriend back home (Malone) has decided to move on with her life.
 
http://www.imdb.com/title/tt0790712/

Subtitles (srt) : Dutch, English.

Covers included.

Will Montgomery (Foster) heeft nog maar drie maanden te gaan, om zijn dienst, als de Amerikaanse arts van de legerziekenhuizen in Irak, af te ronden. Het meisje, Kelly (Malone), dat Will heeft achtergelaten in Amerika, heeft besloten verder te gaan met haar leven. Hierdoor wordt Will geobsedeerd en wil hij, als militair, een nieuwe start in zijn leven maken. Hij ontmoet militair Anthony 'Tony' Stone (Harrelson). Tony leert Will alles over zijn beroep en nieuwe werktaak op het 'Casualty Notification' bureau. Will, die ternauwernood ontsnapte aan de dood, zal nu het nieuws moeten brengen over degene die het niet hebben gered. Tussen hun opdrachten door, krijgen deze twee militairen een unieke band die hen in hun strijd helpt, om zo terug te keren naar hun normale leven, wetende dat niet alles normaal meer kan worden...
 
http://www.moviemeter.nl/film/54839

Ondertitels (srt) : Nederlands, Engels.

Hoesjes bijgevoegd.

General
Complete name                    : The Messenger-AC3-5,1-DVDRip[Eng]2009.avi
Format                           : AVI
Format/Info                      : Audio Video Interleave
File size                        : 1.36 GiB
Duration                         : 1h 52mn
Overall bit rate                 : 1 728 Kbps
Writing application              : VirtualDubMod 1.5.4.1 (build 2178/release)
Writing library                  : VirtualDubMod build 2178/release

Video
ID                               : 0
Format                           : MPEG-4 Visual
Format profile                   : Simple@L3
Format settings, BVOP            : No
Format settings, QPel            : No
Format settings, GMC             : No warppoints
Format settings, Matrix          : Default (H.263)
Codec ID                         : XVID
Codec ID/Hint                    : XviD
Duration                         : 1h 52mn
Bit rate                         : 1 271 Kbps
Width                            : 720 pixels
Height                           : 304 pixels
Display aspect ratio             : 2.35:1
Frame rate                       : 23.976 fps
Resolution                       : 24 bits
Colorimetry                      : 4:2:0
Scan type                        : Progressive
Bits/(Pixel*Frame)               : 0.242
Stream size                      : 1.00 GiB (74%)
Writing library                  : XviD 1.1.2 (UTC 2006-11-01)

Audio
ID                               : 1
Format                           : AC-3
Format/Info                      : Audio Coding 3
Codec ID                         : 2000
Duration                         : 1h 52mn
Bit rate mode                    : Constant
Bit rate                         : 448 Kbps
Channel(s)                       : 6 channels
Channel positions                : Front: L C R, Surround: L R, LFE
Sampling rate                    : 48.0 KHz
Stream size                      : 362 MiB (26%)
Alignment                        : Split accross interleaves
Interleave, duration             : 42 ms (1.00 video frame)
Interleave, preload duration     : 500 ms

Brought to you by 
2Lions Team

meer zien??
Kom dan eens kijken op ons forum 
                    
http://www.2lions.ons-forum.nl

2Lions the site to be for all your Dutch MOVIES and more

******************************************

DON T HIT AND RUN Niet gelijk afhaken als de FILM binnen is blijf seeden. 

Don`t quit after you finished the download, but keep seeding

There are fake torrents from uploaders who use our team name.
Those are not ours, or members from our team.
We 2Lions-Team are not responsible for the fake posts on our name

Wij 2Lions-Team zijn niet verantwoordelijk voor die zieke FAKE posten die op onze naam worden gedaan

Please check our site !!!

to the fakers , get a life !!!